<?xml version="1.0" encoding="UTF-8"?>
<!-- Created with Inkscape (http://www.inkscape.org/) -->
<svg width="512" height="512" version="1.1" viewBox="0 0 512 512" xmlns="http://www.w3.org/2000/svg">
 <path d="m483.62 391.12-47.5 54.25q-72.75-150.25-72.75-282.25 0-22.25 2-43.75-21.25 22.75-57 67.5-38 48-56.25 68.25l57.25-1.75q10.5-0.25 28.25 1 21.5 1.5 28.25 1.75-8.75 24.5-18 63h-9q3.5-22.25 3.5-22.25 0-16.5-41.75-16.5 9.25 0-73.5 2.75-82.75 81.5-141.75 120.75 51-2 62-2 23.25 0 69.5 5.5t69.5 5.5q33.75 0 55.75-23 20.25-21.5 24.75-56l9.25 14.25q-0.25 34.75-46.75 65.25-42.25 28-79.25 28-34.75 0-110.75-5.25-72-5.25-111-4.5l16-25.5q71.75-26.5 137.25-89.5 39.5-38 108.25-125.25 69-87.25 107.75-124.75l6.75 6q-17 19.75-17 53.25 0 49.5 21 146 24.25 112 50.25 126.5l18.5-13.25z" fill="#ffffff" aria-label="A"/>
</svg>
