<svg xmlns="http://www.w3.org/2000/svg" width="66" height="60" viewBox="0 0 66 60"><path d="M59.206,10.402c-0.498-2.989-1.245-4.567-2.823-6.062c-1.578-1.495-4.069-2.491-6.311-2.491 c-3.405,0-6.644,1.993-8.055,4.899L32.8,26.346L24.579,7.994c-1.578-3.736-5.231-6.145-9.134-6.145 c-4.733,0-8.055,3.238-8.969,8.553L0.166,45.86C0.083,46.607,0,47.354,0,48.102c0,5.813,3.819,9.965,9.217,9.965 c4.733,0,8.221-3.238,9.135-8.553l1.494-8.802l3.654,9.881c1.909,5.148,4.815,7.474,9.3,7.474c4.318,0,7.557-2.574,9.384-7.557 l3.57-9.798l2.076,10.38c0.747,4.151,4.4,6.975,9.051,6.975c4.982,0,8.969-3.902,8.969-8.885c0-0.831-0.083-1.91-0.333-3.072 L59.206,10.402z" fill="#fff"/></svg>