<?xml version="1.0" encoding="UTF-8"?>
<!-- Created with Inkscape (http://www.inkscape.org/) -->
<svg width="512" height="512" version="1.1" viewBox="0 0 512 512" xmlns="http://www.w3.org/2000/svg">
 <path d="m233.49 489.33-22.492-22.668 209-210.66-209.95-211.63 21.946-22.187c12.07-12.203 22.864-22.187 23.986-22.187 1.122 0 59.187 57.6 129.03 128l126.99 128-126.99 128c-69.847 70.4-127.45 128-128.01 128-0.5594 0-11.138-10.201-23.509-22.668zm-143.5-146.66-89.989-90.711 180.01-181.42 153.97 155.22h-154.99v50.394h77.003c42.352 0 77.003 0.68473 77.003 1.5216 0 0.83688-34.431 36.213-76.512 78.614l-76.512 77.092z" fill="#ffffff" stroke-width="3.0119"/>
</svg>
