<svg xmlns="http://www.w3.org/2000/svg" width="256" height="256" viewBox="0 0 256 256"><path d="m194.42 87.5602c1.109-1.5101 1.902-3.2242 2.33-5.0414.429-1.8171.486-3.7006.167-5.5397-.319-1.839-1.007-3.5965-2.024-5.1689-1.016-1.5725-2.341-2.9282-3.896-3.9873-3.127-2.0833-6.946-2.8959-10.663-2.2689-3.718.6271-7.048 2.6455-9.298 5.6358-6.829 9.1425-14.067 15.4443-22.412 19.2582-7.143 2.8958-14.747 4.5216-22.461 4.8024-7.389-.2292-14.664-1.8596-21.429-4.8024-8.7218-3.8611-16.0831-10.1157-22.3348-19.2582-1.0879-1.5213-2.4684-2.8159-4.0626-3.81s-3.371-1.6682-5.2289-1.9838c-3.7523-.6374-7.607.2241-10.7164 2.395-3.1094 2.1708-5.2186 5.4732-5.8637 9.1807-.6451 3.7074.2268 7.5162 2.4239 10.5885 14.0671 20.2158 38.9815 30.3168 41.9045 31.2738-11.2078 8.184-23.4465 19.258-28.7439 34.177-5.8469 15.526-5.8469 32.612 0 48.138 5.6504 14.601 16.5841 26.609 30.6829 33.699 15.631 7.723 35.074 7.723 52.611 0 18.522-8.186 30.212-23.166 32.152-39.953 1.954-17.808-6.815-33.699-21.883-40.433-15.631-6.749-33.136-1.931-45.327 12.51-1.171 1.452-2.04 3.119-2.555 4.905-.516 1.785-.669 3.654-.449 5.499.219 1.844.806 3.627 1.727 5.246.92 1.619 2.156 3.041 3.636 4.186 1.481 1.144 3.176 1.987 4.987 2.481 1.812.494 3.705.628 5.569.395 1.865-.234 3.664-.829 5.294-1.753 1.631-.924 3.059-2.158 4.204-3.631 3.408-4.325 7.3-5.776 11.208-4.325 2.923 1.437 5.845 5.283 5.36 12.032-.484 6.749-6.345 12.987-15.63 17.328-9.738 4.324-20.461 4.324-27.759.479-7.804-4.005-13.866-10.681-17.0528-18.78-3.4836-8.983-3.4836-18.922 0-27.905 3.4078-9.144 11.6908-17.329 26.7908-26.471 6.251-3.863 13.16-7.722 19.491-11.074-.438.479 34.636-18.27 49.25-38.0223zm-68.695-72.2002c-6.55 0-12.954 1.9193-18.4 5.5153-5.447 3.5959-9.6923 8.707-12.1991 14.6868s-3.1627 12.5598-1.8848 18.908c1.278 6.3482 4.4325 12.1793 9.0649 16.7561 4.632 4.5767 10.533 7.6935 16.958 8.9563 6.425 1.2627 13.084.6146 19.136-1.8623s11.225-6.6715 14.864-12.0532c3.64-5.3817 5.582-11.7088 5.582-18.1814-.008-8.6769-3.5-16.9961-9.71-23.1316-6.209-6.1355-14.629-9.5859-23.411-9.594zm0 42.3472c-1.922-.0153-3.797-.5926-5.388-1.6591s-2.827-2.5745-3.552-4.3339-.906-3.6915-.522-5.5527c.385-1.8613 1.318-3.5684 2.683-4.9062 1.365-1.3379 3.1-2.2466 4.987-2.6116s3.841-.17 5.615.5605c1.775.7304 3.291 1.9636 4.358 3.5442 1.066 1.5805 1.636 3.4376 1.636 5.3372-.002 1.2695-.258 2.5261-.753 3.6976s-1.22 2.2349-2.132 3.1289c-.912.8941-1.994 1.6013-3.183 2.0809-1.19.4797-2.464.7224-3.749.7142z" fill="#fff"/></svg>