<svg xmlns="http://www.w3.org/2000/svg" width="216" height="86" viewBox="0 0 216 86"><path d="M164.19,6.38c-19.22-.32-41.59,3.5-63,10.77-9.87,3.35-19.41,7.05-28.37,11l-.65.28.8,6.38v.34h0v.09l.94-.19h0c9-.94,18.46-1.44,28.22-1.49-.19,1.26-.34,2.49-.45,3.72-1.13,13,.88,25.72,5.66,36.09h-1.86c-21.29,0-40.4-1.91-53.81-5.38-13-3.36-20.19-8-20.19-13,0-3.69,6.14-9,16.83-14.57L59,34.89,47.68,38.65C31.79,43.9,21.52,51.45,21.52,57.88s8.3,12.09,24,16.05c15.08,3.81,36.39,5.91,60,5.91,36.73,0,70.12-5.86,83.06-14.58,4.4-2.79,6.63-5.83,6.63-9,0-6.26-9.17-13.11-25.16-18.79-16.38-5.83-36.9-9.44-57.88-10.2a60.26,60.26,0,0,1,2-7.39c17.18-4.79,34-7.07,47.33-6.42,12.12.58,20.15,3.59,21.48,8a23.48,23.48,0,0,1,.93,8.46c0,.66,0,1.33,0,2v.8l.73.16c1,.21,7.91,2.45,10.5,3.3l1.1.36.09-1.22c0-.53.95-13-.67-18.45C193.71,10.62,182,6.68,164.19,6.38ZM103.54,27.1c-3.88,0-7.79.08-11.66.21,3.68-1.4,7.41-2.75,11.13-4l1.81-.6C104.32,24.29,103.9,25.73,103.54,27.1Zm75.72,29.12a5,5,0,0,1-1.32,3.69C172.12,67,149.3,72,118.32,73.16c-6.2-9.84-8.87-21.9-7.74-34.93.13-1.48.3-3,.51-4.54C149.12,35,178.4,46.63,179.26,56.22Z" fill="#fff"/></svg>