<svg xmlns="http://www.w3.org/2000/svg" width="1em" height="1em" viewBox="0 0 128 128"><path fill="#fff" d="M113.19 48.94s5.7-9.46 5.53-10.59c-.18-1.13-7.01-4.51-14.37-6.29s-16.75.06-16.75.06s-1.07-5.17-4.04-13.24C80.6 10.8 74.19 5.69 73.47 5.69c-.71 0-2.91 1.84-4.33 3.03c-1.43 1.19-4.69 4.33-4.69 4.33s-2.67-2.49-3.74-3.44s-4.75-4.04-6.12-3.86s-6.12 6.06-9.14 12.47c-3.03 6.41-3.98 14.49-3.98 14.49s-9.09-1.66-16.45-1.01s-16.09 5.23-16.21 5.82s1.07 3.03 2.02 4.93s3.38 5.82 3.38 5.82s-3.07 1.75-4.73 2.76s-5.54 3.59-5.6 4.37c-.06.77 1.48 5.94 8.43 12.47s15.9 8.77 15.9 8.77s-5.93 5.6-7.71 13.44s-.48 17.58.06 17.99c.53.42 3.38.18 6.06-.18c2.67-.36 7.24-1.78 7.24-1.78s.24 4.39.48 6.47s1.72 7.24 2.67 7.54s7.6-1.01 14.19-4.81s11.46-10.93 11.46-10.93s4.1 5.28 10.75 9.44s16.75 5.76 17.46 5.4s2.02-4.04 2.38-5.82s.95-6.41.95-6.41s4.69.53 6.59.59s5.82.06 6.35-.53s1.07-9.92.24-15.8s-5.94-14.49-5.94-14.49s7.13-3.68 13.06-8.31c5.94-4.63 9.62-10.87 9.62-12.71s-10.93-6.8-10.93-6.8m-6.64 18.45c-7.78 4.51-13.66 6.53-13.66 6.53s5.28 5.7 8.02 14.13c2.73 8.43 1.96 14.67 1.96 14.67s-5.28-.36-6.77-.59c-1.48-.24-6.18-.89-6.18-.89s-.83 5.46-1.19 7.3s-.95 5.34-1.48 5.64s-8.91-1.84-15.08-6.83c-6.18-4.99-9.29-11.5-9.29-11.5s-5.2 7.7-11.08 11.97c-5.88 4.28-11.1 6.23-11.7 6.06c-.59-.18-1.14-12.45-1.68-12.92s-12.58 2-13.23 1.52s-.06-9.98 2.85-15.5s9.28-12.02 9.28-12.02s-10.05-2.23-17.06-6.98c-7-4.75-10.74-10.8-10.74-10.8s11.44-6.45 11.49-6.81c.06-.36-6.21-10.77-6.21-10.77s6.77-3.5 15.8-3.03c9.03.48 16.33 3.38 16.33 3.38s.65-10.39 2.97-16.51s5.44-10.69 5.44-10.69s2.32 1.69 4.57 3.77c2.26 2.08 4.94 4.72 4.94 4.72s3.04-3.51 4.94-5.35s3.92-3.44 3.92-3.44s3.92 3.86 6.71 12.47s3.15 12.59 3.15 12.59s8.37-1.84 15.85-.65s12.71 3.74 12.71 3.74s-1.6 3.42-2.67 5.15c-1.07 1.72-3.56 6.02-3.56 6.02s3.56 1.25 6.47 2.55c2.91 1.31 5.46 2.49 5.46 2.49s-3.5 6.07-11.28 10.58"/></svg>