<?xml version="1.0" encoding="UTF-8"?>
<!-- Created with Inkscape (http://www.inkscape.org/) -->
<svg width="512" height="512" version="1.1" viewBox="0 0 512 512" xmlns="http://www.w3.org/2000/svg">
 <path d="m385.54 71.936h1.536q23.552 11.776 35.328 58.88 7.168 26.112 8.704 115.2l-0.512 1.536q0 1.024-1.536 1.024 1.536 14.848-1.024 38.912-8.192 77.312-34.304 123.9-17.408 28.16-30.72 28.672-27.136-1.024-67.072-36.864-17.408-17.408-22.528-58.368 1.024 0 1.536-1.024-2.56 0-3.584-28.16-1.536 0-1.536-1.024 0-1.536 1.536-1.536-1.024-20.992-2.048-32.768h1.536q0-30.72-2.048-39.936l1.536-2.56-1.024-27.648h-1.024q-18.944 51.712-41.984 153.09-22.528 74.24-44.032 75.264h-2.56q-67.072-23.04-87.04-68.608-3.584-4.608-7.68-23.552h1.536q-3.072-6.656-5.632-26.112l2.048-2.56q-2.048-4.096-2.048-15.872 0-1.024 1.536-1.024l-1.024-22.528q0.512-1.536 2.048-1.536l-0.512-9.216 1.024-8.192q0-3.072 1.536-4.608-1.024-2.56-0.512-5.632 2.048-4.608 1.536-5.12 0.512-2.048-1.024-2.048l5.12-17.408-1.536-2.048q2.56-9.728 3.584-9.728 0.512-1.536-0.512-1.536 4.096-29.696 15.872-64 0-1.024-1.536-1.024 14.336-43.008 26.624-48.128 32.256 10.24 50.688 37.376-1.024 6.144 2.56 12.8 0 1.536-1.536 4.096 1.024 15.36 0.512 18.432-2.048 3.072-2.048 4.096l1.536 2.048-2.56 7.68 1.024 6.144-1.536 3.072q-0.512 1.536 1.024 1.024-2.56 7.168-2.56 10.24-0.512 4.608 0.512 9.728-4.096 19.968-5.12 22.528l0.512 3.072-1.536 8.704 0.512 2.56-4.096 12.288q-0.512 1.024 1.536 1.024l-2.56 7.168-0.512 4.096q-0.512 7.68-3.072 21.504l0.512 2.048q-1.024 2.56-1.536 5.12-0.512 4.096 0.512 4.096l-1.536 6.656-1.536 13.312q-0.512 2.56 0 5.632l-0.512 2.048v5.632q0 1.024-1.024 1.024-1.024 36.864 2.56 36.864 31.744-36.352 55.808-105.98 22.016-60.928 48.128-101.38 0.512-20.992 0.512-23.552l3.584-2.56q39.936 13.824 37.888 28.672 12.288 19.968 26.624 150.53l3.584 43.008q52.224-56.832 64-162.82-1.024-4.608-1.024-5.12 0.512-1.536 2.048-1.536 6.656-65.024-13.312-114.18-6.144-7.168-6.144-13.312z" fill="#ffffff" stroke-width="40.891" aria-label="W"/>
</svg>
